<svg id="レイヤー_1" data-name="レイヤー 1" xmlns="http://www.w3.org/2000/svg" viewBox="0 0 592.51 70.75"><defs><style>.cls-1{fill:#006;}</style></defs><g id="レイヤー_2" data-name="レイヤー 2"><g id="レイヤー_1-2" data-name="レイヤー 1-2"><path class="cls-1" d="M12.38,29.34,4.73,52.89,0,38.34l12.38-9m3-2.39L7.77,50.5l4.72,14.55,2.93-38m2.13,5.64-2.92,38.1H29.94L17.55,32.59m-.28-7.17L29.65,63.53H45L17.27,25.42M10.64,13.68,38.33,51.79,23,4.69l-12.38,9m16.9-2.79L42.83,58,39.9,19.9l-12.38-9M41.85,22.56l2.93,38.1,9.45-29.11-12.38-9m74.85-8.81a8.84,8.84,0,0,1-1.93-1c-.12-.08-.13-.21,0-.36a16,16,0,0,0,1.77-3.08c.09-.2.17-.19.32-.2.46,0,.61-.09.61-.24a9.65,9.65,0,0,0-2.29-1.25c-.18-.08-.25,0-.33.26-.17.54-.29.86-.46,1.31a16.58,16.58,0,0,1-1,2.11.2.2,0,0,1-.25.09.2.2,0,0,1-.09-.09,20.72,20.72,0,0,1-1.91-3.37c0-.11-.12-.13-.18-.11l-.4.18a.17.17,0,0,0,0,.21,38.86,38.86,0,0,0,2,4.1.24.24,0,0,1,0,.3,14.92,14.92,0,0,1-5.7,4.4c-.1.05-.07.28.08.24A13.52,13.52,0,0,0,110.55,16a11.75,11.75,0,0,0,2.84-2,.21.21,0,0,1,.29,0,14.43,14.43,0,0,0,3.45,2.67,3,3,0,0,0,.92.39c.12,0,.19-.07.23-.28a2.92,2.92,0,0,1,.25-.7,2.76,2.76,0,0,1,1.24-1.24c.13-.07.08-.17,0-.19a11.77,11.77,0,0,1-3.07-.9Zm-7.64-10.1c-.16,0-.29-.08-.29-.19s.13-.19.29-.19h3a.29.29,0,0,0,.3-.28h0V.41c0-.16.07-.28.23-.26,0,0,1.51.17,2.21.29.29,0,.35.12.34.21s-.49.35-.49.35a.5.5,0,0,0-.26.41V3a.29.29,0,0,0,.29.29H116a.69.69,0,0,0,.48-.23l.9-1.06a.29.29,0,0,1,.41-.05h0l1.72,1.49a.14.14,0,0,1-.1.26Zm1.39.91a.28.28,0,0,1,.35-.18h0a10.79,10.79,0,0,1,2.25,1c0,.15-.26.27-.64.27h0a.61.61,0,0,0-.37.21s-2.8,2.47-4.26,3.5c-.11.07-.2.06-.24,0s0-.1.07-.22a21.76,21.76,0,0,0,2-2.85A12.54,12.54,0,0,0,110.45,4.55ZM118,5.72c.79.49,1,.83,1,1.47s-.39,1.5-.84,1.5c-.27,0-.44-.15-.78-.75a18.58,18.58,0,0,0-2.77-3.17c-.12-.11-.2-.23-.18-.28s.17,0,.32,0A23.59,23.59,0,0,1,118,5.72ZM107,7.79a5.45,5.45,0,0,0-.63-1.7c-.08-.14-.15-.12-.15,0v10.7c0,.16,0,.42-.21.46a7.42,7.42,0,0,1-1.41.08c-.21,0-.2-.34-.2-.61V9.23c0-.16-.06-.18-.13,0A41.63,41.63,0,0,1,101.86,13c-.1.12-.23.19-.29.15s0-.18,0-.32a4.74,4.74,0,0,1,.37-.82c.35-.78.68-1.58,1-2.39A21.17,21.17,0,0,0,103.72,7c.1-.45.19-.9.28-1.35a4,4,0,0,1,.11-.68c0-.23,0-.33-.24-.33h-1.78c-.16,0-.29-.09-.29-.2s.13-.2.29-.2H104a.31.31,0,0,0,.3-.29V.31a.26.26,0,0,1,.26-.26h0s1.32.18,2,.32c.25,0,.41.09.39.2s-.34.25-.45.3a.56.56,0,0,0-.27.41V3.92c0,.13.06.24.19.24h0c.09,0,.2-.15.26-.23l.64-.87a.25.25,0,0,1,.35,0l0,0L109,4.34c.12.12.08.25-.09.25h-2.41a.29.29,0,0,0-.29.29h0v.37a.48.48,0,0,0,.27.41l.8.42a4,4,0,0,1,.48.32s.5.41.5.74c0,.59-.49,1.28-.9,1.28-.13,0-.26-.2-.29-.63Zm-24.29-4a1.65,1.65,0,0,0,1.35-1.6c0-.75-2.84-2.07-2.84-2.07S81,.05,81,.1a.65.65,0,0,0,.08.33,9.29,9.29,0,0,1,1.1,2.42c.15.81.27,1,.59,1ZM79,4c.58,0,1.2-.79,1.2-1.49S77.39.44,77.39.44s-.29-.09-.31,0a.38.38,0,0,0,.1.32A9.89,9.89,0,0,1,78.39,3.3C78.56,3.83,78.73,4,79,4ZM89.55,9.15a.33.33,0,0,0-.42,0L88,10.43a.74.74,0,0,1-.48.22H84.2a.29.29,0,0,1-.29-.29h0V9.85a.48.48,0,0,1,.27-.4s.45-.12.44-.31-.24-.24-.06-.32l2.91-1.29A1.09,1.09,0,0,1,88,7.4c.5,0,.77-.1.77-.28A.34.34,0,0,0,88.65,7a2.35,2.35,0,0,0-.33-.3.11.11,0,0,1,0-.15l0,0,.46-.29,1.42-.91a1.23,1.23,0,0,1,.52-.2s.84-.07.87-.29,0-.23-.18-.34l-1.76-1.4a.36.36,0,0,0-.44,0l-.77.73a.85.85,0,0,1-.5.2h-2c-.16,0-.18-.07,0-.17l2.53-2.08a.79.79,0,0,1,.39-.19c.51,0,.75-.09.77-.3a.19.19,0,0,0-.14-.2L86.88.2a.31.31,0,0,0-.38.18L85,3.78a.53.53,0,0,1-.4.22H77.08a.32.32,0,0,1-.31-.29L76.69,3c0-.3-.29-.33-.33-.12s-.13.46-.21.69a5.18,5.18,0,0,1-.52,1.12,2.28,2.28,0,0,1-.39.48c-.29.26-.72.35-.92.7a1.33,1.33,0,0,0,0,1,1.19,1.19,0,0,0,.72.81.91.91,0,0,0,.77-.23,2.85,2.85,0,0,0,.59-.66,3.65,3.65,0,0,0,.36-1.45,5.52,5.52,0,0,0,.06-.81c0-.11,0-.17.21-.17h11.1a.23.23,0,0,1,.23.21.17.17,0,0,1,0,.07L88,6a.19.19,0,0,1-.32.1l-1-.67a.35.35,0,0,0-.45,0l-.58.6a.83.83,0,0,1-.5.21h-7.3c-.16,0-.29.09-.29.2s.13.19.29.19H85.1c.16,0,.21.11.11.23L83.87,8.54a.62.62,0,0,1-.49.16l-1.32-.19a.27.27,0,0,0-.29.23v1.62a.33.33,0,0,1-.35.29H74.51c-.16,0-.29.09-.29.19s.13.19.29.19h7a.29.29,0,0,1,.29.29h0v3.52c0,.26-.2.38-.45.36L78,15c-.16,0-.29,0-.29.1s.13.15.28.19a10.83,10.83,0,0,1,2.29.77,1.42,1.42,0,0,1,.53,1c0,.3.09.36.34.36a4.81,4.81,0,0,0,2-.47,1.46,1.46,0,0,0,.69-1.4V11.33a.29.29,0,0,1,.24-.34h7.36c.19,0,.26-.17.08-.32ZM360.24,3.81a1.65,1.65,0,0,0,1.35-1.6c0-.75-2.84-2.07-2.84-2.07s-.3-.09-.34,0,0,.19.09.33a9.29,9.29,0,0,1,1.1,2.42C359.8,3.66,359.92,3.81,360.24,3.81ZM356.5,4c.58,0,1.2-.79,1.2-1.49S354.86.44,354.86.44s-.29-.09-.32,0,0,.19.11.32a9.89,9.89,0,0,1,1.21,2.54C356,3.83,356.2,4,356.5,4ZM367,9.15a.33.33,0,0,0-.42,0l-1.1,1.24a.74.74,0,0,1-.48.22h-3.35a.29.29,0,0,1-.29-.29h0V9.85a.46.46,0,0,1,.27-.4s.44-.12.44-.31-.24-.24-.06-.32l2.9-1.29a1.19,1.19,0,0,1,.49-.13c.49,0,.77-.1.77-.28a.23.23,0,0,0-.08-.17,3,3,0,0,0-.32-.3.11.11,0,0,1,0-.15.08.08,0,0,1,0,0l.46-.29,1.42-.91a1.23,1.23,0,0,1,.52-.2S369,5,369,4.77s0-.23-.18-.34l-1.78-1.35a.37.37,0,0,0-.45,0l-.76.73a.85.85,0,0,1-.5.2h-2c-.16,0-.18-.07-.06-.17l2.54-2.08a.79.79,0,0,1,.39-.19c.51,0,.75-.09.77-.3a.19.19,0,0,0-.14-.2L364.35.2a.31.31,0,0,0-.38.18l-1.48,3.4a.52.52,0,0,1-.42.25h-7.52a.32.32,0,0,1-.31-.29l-.09-.7c0-.3-.28-.33-.32-.12s-.13.46-.21.69a5.22,5.22,0,0,1-.53,1.12,2.51,2.51,0,0,1-.38.48c-.29.26-.72.35-.92.7a1.33,1.33,0,0,0,0,1,1.17,1.17,0,0,0,.72.81.91.91,0,0,0,.77-.23,2.44,2.44,0,0,0,.58-.66,3.66,3.66,0,0,0,.37-1.45,5.52,5.52,0,0,0,.06-.81c0-.11,0-.17.21-.17h11.1a.23.23,0,0,1,.23.21.17.17,0,0,1,0,.07L365.44,6a.2.2,0,0,1-.24.15l-.09-.05-.95-.67a.35.35,0,0,0-.45,0l-.58.6a.86.86,0,0,1-.5.21h-7.3c-.16,0-.29.09-.29.2s.13.19.29.19h7.25c.16,0,.21.11.11.23l-1.35,1.61a.62.62,0,0,1-.49.16l-1.32-.19a.27.27,0,0,0-.29.23v1.62a.33.33,0,0,1-.35.29H352c-.16,0-.29.09-.29.19s.13.19.29.19h7a.29.29,0,0,1,.29.29h0v3.52c0,.26-.2.38-.45.36L355.51,15c-.16,0-.29,0-.29.1s.13.15.28.19a10.83,10.83,0,0,1,2.29.77,1.5,1.5,0,0,1,.53,1c0,.3.09.36.34.36a4.81,4.81,0,0,0,2-.47,1.46,1.46,0,0,0,.69-1.4V11.33a.29.29,0,0,1,.29-.29h7.24c.19,0,.26-.17.08-.32ZM129.67,4.53a.53.53,0,0,0,.12.38,10.8,10.8,0,0,1,1.34,2.3c.3.84.37.93.69.93a1.54,1.54,0,0,0,1.24-1.52c0-.89-.89-1.49-3.24-2.09C129.78,4.51,129.69,4.48,129.67,4.53Zm0,6.72c-.08.11.08.29.23.35a3.74,3.74,0,0,1,.87.49,1.69,1.69,0,0,1,.39,1.2v.3A10.45,10.45,0,0,1,131,15a4.33,4.33,0,0,1-.1.71c0,.24-.1.49-.12.73a.52.52,0,0,0,.44.61,1.57,1.57,0,0,0,.83-.11,2.13,2.13,0,0,0,1.27-2,4.52,4.52,0,0,0-.42-1.66,2.52,2.52,0,0,1-.17-.72,5.54,5.54,0,0,1,.19-.9,2.85,2.85,0,0,1,.16-.55l2.34-7.45a.27.27,0,0,0-.16-.35h0a43.28,43.28,0,0,1-1.76,4c-.76,1.51-1.55,3.17-1.81,3.65s-.4.58-.66.58a8.57,8.57,0,0,1-1.23-.22s-.1,0-.11,0ZM131,.82a12.35,12.35,0,0,1,1.66,2.68c.17.41.3.54.6.54.55,0,1.16-.77,1.16-1.48,0-.95-.81-1.47-3.31-2.07-.07,0-.2-.06-.23,0A.45.45,0,0,0,131,.82Zm12.1,7.57h-1.83A.3.3,0,0,1,141,8.1V4.78a.29.29,0,0,1,.29-.29h5.14c.11,0,.18-.06.18-.11s0-.1-.11-.19a22.56,22.56,0,0,0-1.87-1.52c-.16-.13-.23-.14-.36,0L143.2,3.88a.62.62,0,0,1-.47.22h-1.46a.29.29,0,0,1-.29-.29V1.27c.67-.28.78-.36.78-.52s-.07-.19-.24-.25-1.75-.21-2.35-.27a.21.21,0,0,0-.23.24V3.81a.29.29,0,0,1-.29.29h-2.6c-.16,0-.3.09-.3.19s.14.2.3.2h2.6a.29.29,0,0,1,.29.29V8.1a.3.3,0,0,1-.29.29h-3.94c-.16,0-.29.08-.29.19s.13.2.29.2h3.22c.2,0,.3.18.25.4a25.41,25.41,0,0,1-1.34,4.43,1.08,1.08,0,0,1-.82.49H134.6c-.15,0-.27.08-.22.26.6,2.47.69,2.78.91,2.78s.26-.19.33-.59a.41.41,0,0,1,.31-.3c5.38-1.25,5.81-1.35,7.41-1.82.27-.08.44,0,.52.18.19.48.35.84.49,1.32.22.69.39.91.67.91.62,0,1.31-1,1.31-2,0-.57-.31-1.09-1.12-1.93a24.56,24.56,0,0,0-3.37-2.45.31.31,0,0,0-.28-.06c-.14.06-.08.14,0,.19a12.25,12.25,0,0,1,1.75,2.7c.09.19,0,.34-.13.36-1.47.16-3,.25-4.92.37-.38,0-.49-.13-.31-.39.52-.76.85-1.26,1.23-1.88S140.62,9,140.62,9a.51.51,0,0,1,.42-.26h5.89c.11,0,.21-.06.21-.13s0-.1-.11-.19A20.14,20.14,0,0,0,145.25,7a.43.43,0,0,0-.61,0l0,0c-.3.35-.62.7-1,1.08A.66.66,0,0,1,143.1,8.39Zm14.24,8.74c0,.11.19.1.34,0,0,0,1.51-.7,2.13-1.1a13.12,13.12,0,0,0,5-5.61,15.88,15.88,0,0,0,1.45-5.61c0-.28.18-.23.2,0a21,21,0,0,0,.63,3.7,15.33,15.33,0,0,0,2.85,6,10.11,10.11,0,0,0,2.82,2.43c.1,0,.17-.05.25-.24a4.32,4.32,0,0,1,1.65-1.84c.15-.09.32-.31,0-.43a10.62,10.62,0,0,1-3.27-1.7,11.28,11.28,0,0,1-4-5.94,15.54,15.54,0,0,1-.75-4.38V1.76c.62-.23.79-.34.79-.49S167.06,1,165.72.8l-.89-.08c-.42,0-.55.13-.55.48v.52c0,.84-.09,2.21-.2,3.2a18,18,0,0,1-2,6.72A14.21,14.21,0,0,1,157.47,17c-.05,0-.15.06-.13.13Zm41.45-12h-3.46c-.16,0-.18-.07-.05-.16s.78-.53,2.39-1.79a.66.66,0,0,1,.19-.09,5.36,5.36,0,0,0,.78-.15.2.2,0,0,0,.2-.18c0-.07-.13-.27-.41-.49l-1.66-1.18a.16.16,0,0,0-.22,0l0,0c-.42.4-.77.78-.77.78a.75.75,0,0,1-.49.21h-2.78a.1.1,0,0,1-.09-.07.14.14,0,0,1,0-.06c.17-.21.26-.34.47-.61a.15.15,0,0,1,.13-.07c.7-.08.89-.17.89-.37s-.08-.19-.26-.26A24.74,24.74,0,0,0,191.07,0a.22.22,0,0,0-.28.13s0,0,0,0a13.1,13.1,0,0,1-1.54,3,28.09,28.09,0,0,1-3.17,3.71c-.11.11-.2.23-.13.32h0s.17,0,.22-.06a15.84,15.84,0,0,0,2-1.14c.12-.08.32-.23.32.17v1a21.61,21.61,0,0,1-2,9.86.89.89,0,0,0-.08.17.22.22,0,0,0,0,.16h0a.65.65,0,0,0,.22-.11l.24-.16.48-.34a8.75,8.75,0,0,0,.89-.72,8.33,8.33,0,0,0,2.07-3.71.41.41,0,0,1,.38-.27h8.13a.3.3,0,0,1,.29.29v2.42c0,.32-.13.4-.38.39-2.17-.09-3.57-.18-3.57-.18-.16,0-.28,0-.3.17s.06.07.1.07c2.33.48,3,.88,3.08,1.8,0,.26.07.32.26.32a6.56,6.56,0,0,0,2-.47c.62-.3.86-1.33.86-1.33a5.51,5.51,0,0,0,.06-.57V6.41a.46.46,0,0,1,.21-.42c.23-.12.43-.29.43-.44s-.09-.23-.36-.43c-.46-.38-.67-.55-1.06-.84a.41.41,0,0,0-.57,0l0,0c-.22.21-.36.37-.57.59a.68.68,0,0,1-.48.29Zm-5,0H191a.91.91,0,0,1-.45-.16l-.4-.28c-.09-.06-.12-.2.08-.39.86-.83,1.55-1.59,1.55-1.59a.74.74,0,0,1,.48-.22h2.93c.18,0,.27.09.2.25a10,10,0,0,1-1.13,2.12.6.6,0,0,1-.5.3Zm-3,6.5a.26.26,0,0,1-.26-.26v0l.15-2.45a.31.31,0,0,1,.3-.29h2.51a.29.29,0,0,1,.29.29v2.45a.29.29,0,0,1-.29.29Zm.17-6.1h2.53a.29.29,0,0,1,.29.29V8a.3.3,0,0,1-.29.29H191a.24.24,0,0,1-.25-.23h0V5.81a.25.25,0,0,1,.22-.25Zm4.84.29a.29.29,0,0,1,.29-.29h2.76a.3.3,0,0,1,.29.29V8a.3.3,0,0,1-.29.29h-2.76A.3.3,0,0,1,195.8,8Zm3,2.78a.3.3,0,0,1,.29.29v2.45a.3.3,0,0,1-.29.29H196a.29.29,0,0,1-.29-.29V8.92a.29.29,0,0,1,.29-.29ZM213.5,17a.39.39,0,0,0,.27-.11s.89-.75,1.32-1.21a8.77,8.77,0,0,0,2.23-4.27,28.6,28.6,0,0,0,.33-5.55c0-2.06.07-3.39.07-4a.24.24,0,0,1,.17-.25c.43-.18.59-.3.59-.45s-.71-.42-2.77-.47c-.24,0-.33.09-.32.4,0,.91.13,2.43.13,4.14V7a31.41,31.41,0,0,1-.17,4,11.76,11.76,0,0,1-1.76,5.67,1,1,0,0,1-.11.17c-.09.12,0,.12,0,.17Zm7.95-15.77a.36.36,0,0,0-.36.44c0,.31,0,.89,0,1.23v12.2c0,.28,0,.37.37.37a7.1,7.1,0,0,0,1.59-.17c.13-.06.17-.17.17-.35V2.42c0-.14,0-.19.15-.24.47-.19.56-.26.56-.44s0-.15-.18-.21a19.38,19.38,0,0,0-2.28-.25Zm5.81-.6c-.22,0-.43.09-.42.32s0,.61,0,1V16.58c0,.26.14.33.59.33a6,6,0,0,0,1.46-.15.35.35,0,0,0,.24-.35V14.48c0-2.34-.07-4.63-.07-6.93V1.81c0-.13,0-.17.16-.22.46-.19.59-.3.59-.46s-.56-.36-2.53-.45ZM249.2,8.26V8a.3.3,0,0,1,.26-.33.28.28,0,0,1,.18,0,11.46,11.46,0,0,1,3.76,2.74c.46.53.61.62.86.62.5,0,.84-.52.84-1.31a1.91,1.91,0,0,0-1.37-1.83,13.82,13.82,0,0,0-4-1,.56.56,0,0,1-.53-.57h0c.07-2.39.11-2.73.42-3.24a1,1,0,0,0,.15-.47c0-.39-.26-.69-.93-1.08a5.12,5.12,0,0,0-2.31-.74A1.12,1.12,0,0,0,246,1c-.11,0-.13.14,0,.18a2.24,2.24,0,0,1,1.11.9c.27.48.32,1.12.32,4.49,0,4.51-.11,6.35-.43,7.3a2.2,2.2,0,0,0-.15.71,3.11,3.11,0,0,0,.66,1.56,1.27,1.27,0,0,0,1,.65.7.7,0,0,0,.64-.48,3,3,0,0,0,.13-1.16V10.5Zm3.3-6.56c-.05.08,0,.2.12.31a11.11,11.11,0,0,1,2,2.48c.17.3.32.43.51.43.37,0,.69-.43.69-.92,0-.88-.76-1.49-3.07-2.29C252.68,1.68,252.54,1.63,252.5,1.7ZM254.22.44a.32.32,0,0,0,.15.29,7.29,7.29,0,0,1,1,.84A6.41,6.41,0,0,1,256.47,3c.17.26.28.37.45.37a1,1,0,0,0,.6-.88,1.57,1.57,0,0,0-1.07-1.33,9,9,0,0,0-2-.7C254.37.43,254.24.39,254.22.44Zm20.84,16a.39.39,0,0,0,.26,0,20.81,20.81,0,0,0,4.24-2.9A20.32,20.32,0,0,0,284,5.82a3.18,3.18,0,0,1,.64-1.27A.74.74,0,0,0,284.9,4c0-.28-.2-.56-.67-1a3.31,3.31,0,0,0-1.65-.92.91.91,0,0,0-.45.16,1.71,1.71,0,0,1-.75.31c-.45.1-1.18.19-3.74.51a30.22,30.22,0,0,1-3.3.33.82.82,0,0,1-.54-.16,4.25,4.25,0,0,0-2.12-.88c-.24,0-.43,0-.44.08s.11.16.25.24a2,2,0,0,1,.81.88,6,6,0,0,1,.39,2.37,4.41,4.41,0,0,1-.24,1.61,1.35,1.35,0,0,0-.11.45,2.79,2.79,0,0,0,.5,1.39c.34.52.68.79,1,.79.5,0,.74-.42.74-1.3,0-.11,0-.39-.05-1.14a11.55,11.55,0,0,0-.08-1.48,12.21,12.21,0,0,0-.07-1.73c0-.12,0-.26.28-.12a1.67,1.67,0,0,0,.75.22,2.74,2.74,0,0,0,.5-.07,32.6,32.6,0,0,1,5.48-.79c.38,0,.57.23.54.45a21.33,21.33,0,0,1-2.63,7.15,15.54,15.54,0,0,1-4.3,4.93c0,.07,0,.14.06.18ZM299.35,2.88c-.05.1,0,.25.16.35a14.53,14.53,0,0,1,3.09,3.36c.28.48.46.63.78.63.58,0,1-.67,1-1.55a1.73,1.73,0,0,0-.91-1.61,10.16,10.16,0,0,0-3.94-1.21S299.38,2.83,299.35,2.88Zm14.17,1a.41.41,0,0,0-.34.12,68.47,68.47,0,0,1-6.56,5.83c-2.23,1.59-4.68,2.88-5.46,2.88-.47,0-1-.45-1.52-1.2-.06-.09-.15-.09-.18.07a1,1,0,0,0,0,.25,3.6,3.6,0,0,0,.9,2.08c.66.84,1.35,1.36,1.84,1.36a1,1,0,0,0,.78-.46,4.17,4.17,0,0,1,1-.83,29.88,29.88,0,0,0,5.43-4.27,20.1,20.1,0,0,0,4.14-5.63c0-.08.05-.14,0-.18Zm12.64,0c-.05-.07-.14-.07-.17.08a.67.67,0,0,0,0,.2,2.65,2.65,0,0,0,.52,1.43c.51.76,1.07,1.19,1.54,1.19a1.58,1.58,0,0,0,.73-.18,15.18,15.18,0,0,1,2.56-.71,26.35,26.35,0,0,1,3.43-.43c.32,0,.43.07.43.33,0,.93-.42,4.35-.72,6.13a.43.43,0,0,1-.44.37l-3.2.32-2.34.28c-.4,0-.77.07-1,.07a2.24,2.24,0,0,1-1.89-1.12c0-.07-.11,0-.13.11v.19c0,1.07,1.31,2.7,2.16,2.7a1.4,1.4,0,0,0,.45-.1,16,16,0,0,1,6.12-1.06,10.79,10.79,0,0,1,1.61.09c.6.07.73.09.88.09.39,0,.6-.18.6-.54s-.28-.78-.87-1.24a.26.26,0,0,1-.13-.31c.07-.29.16-.65.25-1.09.51-2.1.54-2.25.71-2.94a3.46,3.46,0,0,1,.47-1.2c.26-.26.32-.37.32-.58s-.17-.56-.68-1a3.52,3.52,0,0,0-1.72-1.08.85.85,0,0,0-.47.13A2.75,2.75,0,0,1,334,4.4c-2,.3-5,.62-5.84.62A2,2,0,0,1,327,4.7a2.88,2.88,0,0,1-.8-.83Zm9.72-2.31a11,11,0,0,1,1.85,2.18c.3.53.37.6.6.6s.65-.49.65-1.07c0-.41-.17-.65-.73-1a10.6,10.6,0,0,0-1.95-.86l-.41-.13h-.16s0,.16.15.27ZM337.55.14a.37.37,0,0,0,.14.28,11.14,11.14,0,0,1,2,2c.3.49.35.57.54.57s.58-.49.58-1-.23-.75-.86-1.09a7.64,7.64,0,0,0-2.24-.68S337.57.09,337.55.14ZM382,16.39a.29.29,0,0,1,.29-.29h11a.29.29,0,0,1,.29.29h0v.4c0,.34.13.4.75.4a2.26,2.26,0,0,0,1.25-.25c.1-.09.13-.22.13-.45V2.25c0-.24.07-.26.17-.33.35-.24.38-.29.38-.46s-.06-.21-.21-.34c-.53-.4-.76-.59-1.23-.93-.23-.17-.36-.2-.57,0l-.72.75a.76.76,0,0,1-.49.22H382.32l-2-1a.24.24,0,0,0-.34.08.28.28,0,0,0,0,.15v16.4c0,.38.15.45.77.45a2.71,2.71,0,0,0,1.16-.17.38.38,0,0,0,.17-.37Zm0-14.53a.29.29,0,0,1,.29-.29h11a.29.29,0,0,1,.29.29h0V15.42a.29.29,0,0,1-.29.29h-11a.29.29,0,0,1-.29-.29h0Zm3.94,5.36a1.48,1.48,0,0,1-.55-.13l-1.45-.61c-.21-.09-.28,0-.28.11v3.69c0,.26.1.3.68.3a2.68,2.68,0,0,0,1.05-.15.22.22,0,0,0,.11-.22V10c0-.09.13-.17.29-.17h.72c.08,0,.13,0,.08.1a31.9,31.9,0,0,1-4.24,4.22c-.12.1-.17.25-.11.33h0a16.7,16.7,0,0,0,2.14-.9A17,17,0,0,0,386.6,12c.13-.1.2,0,.2.11V14.8c0,.35.07.43.63.43.92,0,1.12-.11,1.12-.51v-3c0-.17.11-.23.21-.17a4.63,4.63,0,0,1,.56.43,12.83,12.83,0,0,1,1.91,2.19c.36.54.39.58.62.58.41,0,.8-.56.8-1.14s-.52-1.11-2.26-1.85a21.08,21.08,0,0,0,2.17-.83A2.13,2.13,0,0,0,393,11c.15,0,.28-.08.28-.17s-.07-.18-.26-.3l-1.1-.71a.35.35,0,0,1-.17-.34V8.05c0-.08,0-.15.16-.22s.32-.2.32-.31-.05-.18-.2-.3a11.87,11.87,0,0,0-1-.68c-.19-.14-.28-.15-.45,0s-.42.36-.75.68Zm2.86-3.53a.3.3,0,0,1-.29-.29V3c0-.06,0-.09.1-.1.46-.13.6-.21.6-.37s-.36-.3-2.37-.48c-.18,0-.21.08-.21.21V3.49c0,.16-.12.2-.28.2h-2.82c-.16,0-.29.08-.29.19s.13.2.29.2h2.82a.29.29,0,0,1,.29.29h0v1a.29.29,0,0,1-.29.29h-3.66c-.15,0-.28.09-.28.2s.13.19.28.19H393.2c.16,0,.26,0,.26-.12a.32.32,0,0,0-.13-.22l-1.16-1c-.24-.19-.35-.2-.54,0l-.66.7a.74.74,0,0,1-.48.22H388.8a.29.29,0,0,1-.29-.29h0v-1a.29.29,0,0,1,.29-.29h3.81c.15,0,.25-.06.25-.13s-.06-.16-.18-.27-.66-.58-1.11-.92c-.24-.18-.33-.22-.55,0s-.47.5-.84.93Zm-3.3,4.22a.29.29,0,0,1,.29-.29h3.87a.31.31,0,0,1,.3.29V9.18a.31.31,0,0,1-.3.29h-3.87a.29.29,0,0,1-.29-.29h0Zm3.05,3v-.75a.3.3,0,0,1,.29-.29h.82a.29.29,0,0,1,.3.25h0c0,.19.11.24.52.24h.31c.1,0,.15.06.08.14a9.1,9.1,0,0,1-1.06,1l-1.11-.41a.2.2,0,0,1-.15-.19ZM134,52.46Zm17.25,11.88s-1.5.1-2.76.14c-.32,0-.75-.19-.75-.53v-.58c0-.25-.31-.45-.69-.45h-7.67a.7.7,0,0,0-.7.7V65a.83.83,0,0,1-.72.84c-.45.09-2.58.18-3,.18a.86.86,0,0,1-.83-.88V53.21a.42.42,0,0,1,.37-.48.37.37,0,0,1,.27.05l3.73,1.67a3.59,3.59,0,0,0,1.33.31h6.81a2,2,0,0,0,1.2-.49l1.38-1.33a.9.9,0,0,1,1.08-.08l3.19,2.4a.49.49,0,0,1,.13.68.53.53,0,0,1-.13.13l-.76.5a.76.76,0,0,0-.36.73V63c0,.71,0,1.25-1.08,1.34Zm-3.51-7.94a.71.71,0,0,0-.69-.7h-7.67a.7.7,0,0,0-.7.7v4.87a.7.7,0,0,0,.7.7h7.67a.69.69,0,0,0,.69-.69h0Zm8.53-17.9c.4.27.34.6.11.78s-.44.35-.74.63-.46.33-.46.65v6.23a1,1,0,0,1-.88,1.11h-.17s-1.71.1-3.13.1a.74.74,0,0,1-.72-.68v-.56a.76.76,0,0,0-.7-.72H136.94a.77.77,0,0,0-.78.55c0,.33,0,.9-.25,1.12a.94.94,0,0,1-.4.13,24,24,0,0,1-3.39.3.81.81,0,0,1-.72-.82V36.66a.44.44,0,0,1,.38-.49.42.42,0,0,1,.27,0l4,1.73a3.79,3.79,0,0,0,1.33.3h12a1.78,1.78,0,0,0,1.17-.52l1.32-1.35a1,1,0,0,1,1.11-.11s2.94,1.92,3.38,2.23Zm-6,1.4a.7.7,0,0,0-.7-.7H136.94a.7.7,0,0,0-.7.7v4.51a.7.7,0,0,0,.7.7h12.67a.72.72,0,0,0,.7-.7Zm13.9-6-4.77-3.75a.79.79,0,0,0-1,.1l-2.5,2.83a1.72,1.72,0,0,1-1.16.53H146.5a.7.7,0,0,1-.7-.7V31.47a1.23,1.23,0,0,1,.62-1s1.09-.55,1.09-.87c0-.58-1.17-.9-3.92-1.08-.68,0-2.32-.19-2.32-.19a.63.63,0,0,0-.7.56v4a.72.72,0,0,1-.7.7H124.26c-.38,0-.7.21-.7.48s.32.47.7.47h39.81a.36.36,0,0,0,.14-.67ZM161.49,53a1.3,1.3,0,0,1,.61-1s1.2-.66,1.2-1.11V50.7a9.73,9.73,0,0,0-.92-.78l-3.11-2.25a.86.86,0,0,0-1.06.1l-1.56,1.65a1.81,1.81,0,0,1-1.18.51H131.3a3.29,3.29,0,0,1-1.3-.33l-4.26-2.15a.42.42,0,0,0-.57.12.45.45,0,0,0-.06.28V69.14c0,.39.23,1,.75,1a13,13,0,0,0,3.57-.28A.93.93,0,0,0,130,69V51.57a.7.7,0,0,1,.7-.7H156a.7.7,0,0,1,.7.7V64.79c0,.39,0,.71-.6.69l-4.79-.21c-.38,0-.7.07-.72.22s.19.37.65.45a4.24,4.24,0,0,1,2.16,1.14,5.13,5.13,0,0,1,.92,1,2.71,2.71,0,0,1,.33.63c.1.24.15.5.26.73a1,1,0,0,0,.51.58,1.4,1.4,0,0,0,.61.07,10.29,10.29,0,0,0,1.54-.15,9.47,9.47,0,0,0,1.89-.53,3.12,3.12,0,0,0,1.94-1.88,3.74,3.74,0,0,0,.17-1Zm28.45,6c-1.26-.53-5.59-1.67-5.59-1.67-.37-.09-.73-.1-.79,0s.1.39.36.67a26.88,26.88,0,0,1,4.22,6.08c.77,1.71,1.08,2,1.8,2,1.45,0,2.89-1.9,2.89-3.7C192.83,60.84,192,59.9,189.94,59Zm26.67-25-4.33-3.48a.76.76,0,0,0-1,.1L209,33.09a1.85,1.85,0,0,1-1.17.52h-6.31c-.39,0-.51-.25-.26-.55l1.15-1.54a2.13,2.13,0,0,1,1.07-.74s1.35-.33,1.35-.78S199,28.41,199,28.41a.73.73,0,0,0-.83.56l-1.29,4.48c-.17.46-.36.48-.84,0l-3-2.65a.71.71,0,0,0-1,.08v0l-1.89,2.18a1.81,1.81,0,0,1-1.16.53H184.8c-.39,0-.52-.26-.31-.58l1.06-1.71a1.78,1.78,0,0,1,1-.72s1.3-.24,1.3-.69-5.94-1.63-5.94-1.63a.75.75,0,0,0-.85.55,31.58,31.58,0,0,1-1.55,4.64A66.3,66.3,0,0,1,175.27,41c-.22.33-.3.66-.19.75s.46,0,.76-.27l7-6.41a1.83,1.83,0,0,1,1.17-.52h0a1.21,1.21,0,0,1,1,.64,21.25,21.25,0,0,1,1.46,5c.18,1,.45,1.39,1.08,1.39a3.41,3.41,0,0,0,3-3.06c0-1.18-4.35-3.59-4.35-3.59-.34-.18-.29-.34.09-.34h9.42a.44.44,0,0,1,.48.39.47.47,0,0,1-.05.26L194.87,38a1.13,1.13,0,0,1-1,.55h-.26a.62.62,0,0,0-.69.52V42a.72.72,0,0,1-.7.7H181.14c-.39,0-.7.21-.7.47s.31.47.7.47h11a.71.71,0,0,1,.7.69v4.2a.71.71,0,0,1-.7.69H176.67c-.38,0-.7.21-.7.46s.32.47.7.47h23.8a.7.7,0,0,1,.7.7v3.56a.7.7,0,0,1-.7.7H177.26c-.38,0-.7.21-.7.47s.32.48.7.48h23.21a.7.7,0,0,1,.7.7V64a.88.88,0,0,1-1,1l-6.25-.3c-.38,0-.71.08-.72.24s.28.38.65.49A22.85,22.85,0,0,1,198,67a3.19,3.19,0,0,1,1.09,2.3c0,.64.18.82.63.82a12.32,12.32,0,0,0,4.7-1.12,3.78,3.78,0,0,0,1.33-1.42,3.57,3.57,0,0,0,.29-1.33V56.61a.64.64,0,0,1,.7-.59h9c.27,0,.42-.24.1-.55s-4-3.48-4-3.48a.73.73,0,0,0-1,.09l-2,2.45a1.64,1.64,0,0,1-1.14.54h-1a.72.72,0,0,1-.7-.74V50.81a.72.72,0,0,1,.7-.7h9.38c.37,0,.59-.33.17-.68L212,45.94a.78.78,0,0,0-1,.09l-2.32,2.6a1.68,1.68,0,0,1-1.15.53h-9.07a.69.69,0,0,1-.69-.69h0v-4.2a.69.69,0,0,1,.69-.69h14.39c.2,0,.38-.24.12-.45l-4.09-3.25a.81.81,0,0,0-1,.1l-2,2.14a1.84,1.84,0,0,1-1.17.51h-6.23a.71.71,0,0,1-.69-.7v-.68a1,1,0,0,1,.66-.92s1.05-.36,1.05-.77-3.32-.87-3.32-.87c-.38,0-.45-.27-.14-.5l3.55-3.14a2,2,0,0,1,1.19-.5H201a1.21,1.21,0,0,1,1,.64,18.62,18.62,0,0,1,1.28,4.19c.23,1.31.54,1.8,1.26,1.8a3.41,3.41,0,0,0,2.94-2.93c0-1.21-4.3-3.38-4.3-3.38-.34-.17-.31-.32.08-.32h13.25C216.79,34.55,216.89,34.23,216.61,34Zm-105.78-.83c0-.26-.31-.45-.7-.45H98.9c-.38,0-.69.2-.69.46s.31.48.69.48c2.48.14,3.5,1,4.23,2.29s1,2.91,1,6.56V61.8a.31.31,0,0,1-.31.29.33.33,0,0,1-.22-.11l-20-28.71a1.32,1.32,0,0,0-1.26-.55H74.09c-.39,0-.7.22-.7.48s.31.48.7.48h0c3.89.29,4.35,1.67,4.35,6.43V59.68c0,6.61-.67,8.61-4.8,8.81h0c-.38,0-.69.19-.69.45s.31.48.69.48H84.88c.38,0,.7-.21.7-.48s-.32-.45-.7-.45h0c-4.18-.24-5.1-2-5.1-8.41V37.16a.31.31,0,0,1,.34-.28.28.28,0,0,1,.19.09l22.11,31.65a1.51,1.51,0,0,0,1.3.8h.87c.47,0,.85-.31.85-1V42.16c0-3.11.14-5,.86-6.22a4.31,4.31,0,0,1,3.88-2.29C110.54,33.62,110.83,33.46,110.83,33.17ZM247.3,37.49c1.58,0,3.25-2,3.25-3.83s-6.81-5-6.81-5c-.34-.16-.71-.2-.81-.09s0,.47.2.79a22.5,22.5,0,0,1,2.64,5.82C246.26,37.13,246.54,37.49,247.3,37.49Zm-9,.5c1.39,0,2.88-1.9,2.88-3.57,0-1.85-6.81-5-6.81-5-.34-.16-.69-.2-.76-.09s0,.46.26.78a23.06,23.06,0,0,1,2.89,6.1c.44,1.32.85,1.79,1.57,1.79Zm25.26,12.32a.76.76,0,0,0-1,.1l-2.64,3a1.75,1.75,0,0,1-1.16.52h-8a.7.7,0,0,1-.7-.7V52a1.1,1.1,0,0,1,.66-.94s1-.31,1-.75c0-.28-.58-.58-.14-.78l7-3.1a3.17,3.17,0,0,1,1.17-.31c1.18,0,1.85-.22,1.85-.68a.63.63,0,0,0-.19-.4,7.56,7.56,0,0,0-.78-.72.26.26,0,0,1-.09-.37.2.2,0,0,1,.09-.09l1.11-.68L265.19,41a2.77,2.77,0,0,1,1.26-.47s2-.18,2.08-.7c.05-.34-.09-.56-.43-.82l-4.28-3.24a.86.86,0,0,0-1.07,0l-1.83,1.75a2,2,0,0,1-1.19.49h-4.88c-.38,0-.44-.19-.13-.41l6.09-5a1.75,1.75,0,0,1,.92-.46c1.22,0,1.8-.23,1.85-.73a.47.47,0,0,0-.32-.49l-6.09-2.13a.72.72,0,0,0-.9.45l-3.55,8.14a1.27,1.27,0,0,1-1,.62h-18a.79.79,0,0,1-.76-.7l-.19-1.68c-.09-.72-.69-.81-.79-.3a13.73,13.73,0,0,1-.49,1.66,12.65,12.65,0,0,1-1.27,2.68,5.72,5.72,0,0,1-.93,1.15c-.68.63-1.72.85-2.2,1.69A3.11,3.11,0,0,0,227,45a2.79,2.79,0,0,0,1.73,1.94,2.23,2.23,0,0,0,1.85-.54,6.64,6.64,0,0,0,1.4-1.59,9.12,9.12,0,0,0,.88-3.48,15.68,15.68,0,0,0,.14-1.94c0-.27.12-.41.5-.41h26.67a.52.52,0,0,1,.55.49.37.37,0,0,1,0,.18l-.91,3.18a.48.48,0,0,1-.58.35.53.53,0,0,1-.21-.11l-2.29-1.63a.86.86,0,0,0-1.07.1L254.24,43a1.9,1.9,0,0,1-1.19.5H235.53c-.39,0-.7.21-.7.48s.31.47.7.47h17.39c.38,0,.5.25.28.56L250,48.84a1.44,1.44,0,0,1-1.17.39l-3.17-.45a.61.61,0,0,0-.69.51.41.41,0,0,0,0,.11v3.81a.79.79,0,0,1-.84.69H227.48c-.38,0-.7.21-.7.46s.32.46.7.46h16.73a.7.7,0,0,1,.7.7V64c0,.63-.47.9-1.07.87L236,64.41c-.39,0-.7.09-.7.25s.31.36.68.46c0,0,4.64,1.14,5.49,1.85a3.42,3.42,0,0,1,1.27,2.35c.09.73.23.86.82.86a11.68,11.68,0,0,0,4.86-1.12,3.53,3.53,0,0,0,1.67-3.37V55.55a.7.7,0,0,1,.7-.7h17.37c.46,0,.63-.42.18-.78ZM314,61.52A20.84,20.84,0,0,1,309.36,59c-.28-.19-.31-.49,0-.85a39.48,39.48,0,0,0,4.23-7.39c.22-.48.42-.47.78-.49,1.09-.05,1.47-.21,1.46-.56,0-.56-3.92-2.32-5.5-3-.43-.19-.59,0-.78.62-.42,1.3-.7,2.07-1.11,3.16a37.92,37.92,0,0,1-2.53,5.06.46.46,0,0,1-.64.18.39.39,0,0,1-.18-.18,52.2,52.2,0,0,1-4.56-8.08c-.11-.26-.29-.32-.43-.25l-1,.43c-.19.08-.2.27-.11.49,1,2.34,3.47,7.68,4.75,9.84a.55.55,0,0,1,0,.72,35.66,35.66,0,0,1-13.46,10.53c-.24.11-.17.66.2.58a32.92,32.92,0,0,0,8.78-3A27.35,27.35,0,0,0,306.07,62a.52.52,0,0,1,.7,0A34.28,34.28,0,0,0,315,68.47a7,7,0,0,0,2.2.94c.28,0,.46-.18.55-.67a7,7,0,0,1,.58-1.67,6.7,6.7,0,0,1,3-3c.32-.17.2-.42,0-.45A27.47,27.47,0,0,1,314,61.52ZM295.68,37.28c-.39,0-.71-.21-.71-.46s.32-.47.71-.47h7.25a.7.7,0,0,0,.7-.7h0V29.52a.51.51,0,0,1,.35-.62.66.66,0,0,1,.2,0s3.63.41,5.32.71c.68.12.82.28.8.49-.06.4-1.16.85-1.16.85a1.15,1.15,0,0,0-.64,1v3.74a.69.69,0,0,0,.68.7h3.22a1.73,1.73,0,0,0,1.14-.54l2.1-2.61a.7.7,0,0,1,1-.14l0,0,4.13,3.57a.35.35,0,0,1-.25.64ZM299,39.45a.68.68,0,0,1,.87-.41h0s5.4,2,5.4,2.5-.64.64-1.54.64h-.09a1.5,1.5,0,0,0-.88.51s-6.71,5.93-10.22,8.39c-.24.17-.48.14-.57,0s-.07-.23.18-.53A50.43,50.43,0,0,0,297,43.76,31.82,31.82,0,0,0,299,39.45Zm18.18,2.82c1.89,1.17,2.44,2,2.44,3.52,0,1.89-.95,3.6-2,3.6-.64,0-1-.36-1.85-1.8C314,44.47,309.1,40,309.1,40c-.28-.26-.47-.57-.42-.68s.39-.11.76,0c0,0,5.82,1.77,7.76,3Zm-26.33,5a13,13,0,0,0-1.5-4.09c-.2-.33-.35-.29-.35.1V68.81c0,.39-.07,1-.52,1.1a19.12,19.12,0,0,1-3.38.2c-.5,0-.48-.83-.48-1.47v-18c0-.38-.13-.41-.31-.07a96.66,96.66,0,0,1-5.78,8.94c-.23.31-.56.47-.69.38s-.12-.44.05-.79c.32-.64.6-1.3.89-2,.83-1.89,1.62-3.79,2.31-5.73A59.09,59.09,0,0,0,283,45.13c.25-1.07.47-2.15.67-3.23l.27-1.63c.05-.38-.12-.79-.56-.79H279.1c-.38,0-.7-.22-.7-.48s.32-.48.7-.48h4.58a.71.71,0,0,0,.71-.7V29.28a.61.61,0,0,1,.57-.63h.12s3.18.43,4.83.76c.61.13,1,.24.93.49s-.8.59-1.07.72a1.3,1.3,0,0,0-.64,1V38c0,.31.16.58.46.58h.13c.21,0,.48-.36.62-.56l1.52-2.08a.61.61,0,0,1,.85-.15l.08.07s2.88,2.94,3,3.08.17.59-.24.59h-5.76a.7.7,0,0,0-.7.7h0v.9a1.15,1.15,0,0,0,.64,1l1.92,1a10.05,10.05,0,0,1,1.14.79s1.22,1,1.22,1.77c0,1.4-1.17,3.07-2.17,3.07-.57-.06-.84-.46-1-1.5Z" transform="translate(0 0.01)"/><path class="cls-1" d="M405,52.46Z" transform="translate(0 0.01)"/><path class="cls-1" d="M423.35,63V57.3a.76.76,0,0,1,.36-.73l.76-.5a.49.49,0,0,0,.13-.68.53.53,0,0,0-.13-.13l-3.19-2.4a.9.9,0,0,0-1.08.08l-1.38,1.33a2,2,0,0,1-1.2.49h-6.81a3.59,3.59,0,0,1-1.33-.31l-3.73-1.67a.43.43,0,0,0-.59.16.5.5,0,0,0-.05.27V65.15A.86.86,0,0,0,406,66h0c.42,0,2.55-.09,3-.18a.83.83,0,0,0,.72-.84V63.62a.7.7,0,0,1,.7-.7h7.67c.38,0,.69.2.69.45V64c0,.34.43.54.75.53,1.26,0,2.76-.14,2.76-.14C423.35,64.25,423.35,63.71,423.35,63Zm-4.61-1.74a.69.69,0,0,1-.68.7h-7.68a.7.7,0,0,1-.7-.7h0V56.4a.7.7,0,0,1,.7-.7h7.67a.71.71,0,0,1,.69.7Z" transform="translate(0 0.01)"/><path class="cls-1" d="M423.94,36.27a1,1,0,0,0-1.11.11l-1.32,1.35a1.78,1.78,0,0,1-1.17.52H408.39a3.79,3.79,0,0,1-1.33-.3L403,36.22a.44.44,0,0,0-.6.17.5.5,0,0,0,0,.27V47.33a.81.81,0,0,0,.72.82,24,24,0,0,0,3.39-.3.94.94,0,0,0,.4-.13c.29-.22.2-.79.25-1.12a.77.77,0,0,1,.78-.55h12.67a.76.76,0,0,1,.7.72v.56A.75.75,0,0,0,422,48c1.39,0,3.14-.11,3.14-.11a1,1,0,0,0,1.05-.94.49.49,0,0,0,0-.17V40.56c0-.32.21-.42.46-.65s.42-.37.74-.63.29-.51-.11-.78Zm-2.67,8.14a.72.72,0,0,1-.7.7H407.9a.7.7,0,0,1-.7-.7h0V39.9a.7.7,0,0,1,.7-.7h12.67a.7.7,0,0,1,.7.7h0Z" transform="translate(0 0.01)"/><path class="cls-1" d="M435.17,33.9l-4.77-3.75a.79.79,0,0,0-1,.1l-2.5,2.83a1.72,1.72,0,0,1-1.16.53h-8.25a.7.7,0,0,1-.7-.7h0V31.47a1.23,1.23,0,0,1,.62-1s1.09-.55,1.09-.87c0-.58-1.17-.9-3.92-1.08-.68,0-2.32-.19-2.32-.19a.63.63,0,0,0-.7.56v4a.72.72,0,0,1-.7.7H395.22c-.38,0-.7.21-.7.48s.32.47.7.47H435a.37.37,0,0,0,.35-.37A.36.36,0,0,0,435.17,33.9Z" transform="translate(0 0.01)"/><path class="cls-1" d="M432.45,53a1.3,1.3,0,0,1,.61-1s1.2-.66,1.2-1.11V50.7a9.73,9.73,0,0,0-.92-.78l-3.11-2.25a.86.86,0,0,0-1.06.1l-1.56,1.65a1.81,1.81,0,0,1-1.18.51H402.26A3.41,3.41,0,0,1,401,49.6l-4.26-2.15a.42.42,0,0,0-.57.12.45.45,0,0,0-.06.28V69.14c0,.39.23,1,.75,1a13,13,0,0,0,3.57-.28A.93.93,0,0,0,401,69V51.57a.7.7,0,0,1,.7-.7H427a.7.7,0,0,1,.7.7h0V64.79c0,.39,0,.71-.6.69l-4.79-.21c-.38,0-.7.07-.72.22s.19.37.65.45a4.24,4.24,0,0,1,2.16,1.14,5.13,5.13,0,0,1,.92,1,2.71,2.71,0,0,1,.33.63c.1.24.15.5.26.73a1,1,0,0,0,.51.58,1.4,1.4,0,0,0,.61.07,10.29,10.29,0,0,0,1.54-.15,9.47,9.47,0,0,0,1.89-.53,3.12,3.12,0,0,0,1.94-1.88,3.74,3.74,0,0,0,.17-1Z" transform="translate(0 0.01)"/><path class="cls-1" d="M460.9,59c-1.26-.53-5.59-1.67-5.59-1.67-.37-.09-.73-.1-.79,0s.1.39.36.67a26.88,26.88,0,0,1,4.22,6.08c.77,1.71,1.08,2,1.8,2,1.45,0,2.89-1.9,2.89-3.7C463.79,60.84,463,59.9,460.9,59Z" transform="translate(0 0.01)"/><path class="cls-1" d="M487.57,34l-4.33-3.48a.76.76,0,0,0-1,.1L480,33.09a1.85,1.85,0,0,1-1.17.52h-6.31c-.39,0-.51-.25-.26-.55l1.15-1.54a2.13,2.13,0,0,1,1.07-.74s1.35-.33,1.35-.78S470,28.41,470,28.41a.73.73,0,0,0-.83.56l-1.29,4.48c-.17.46-.36.48-.84,0l-3.1-2.69a.71.71,0,0,0-1,.08v0L461.05,33a1.81,1.81,0,0,1-1.16.53h-4.15c-.39,0-.52-.26-.31-.58l1.06-1.71a1.78,1.78,0,0,1,1-.72s1.3-.24,1.3-.69-5.94-1.63-5.94-1.63a.75.75,0,0,0-.85.55,31.58,31.58,0,0,1-1.55,4.64A66.68,66.68,0,0,1,446.23,41c-.22.33-.3.66-.19.75s.46,0,.76-.27l7.05-6.41a1.83,1.83,0,0,1,1.17-.52h0a1.21,1.21,0,0,1,1,.64,21.25,21.25,0,0,1,1.46,5c.18,1,.45,1.39,1.08,1.39a3.41,3.41,0,0,0,3-3.06c0-1.18-4.35-3.59-4.35-3.59-.34-.18-.29-.34.09-.34h9.42a.44.44,0,0,1,.48.39.47.47,0,0,1-.05.26L465.83,38a1.13,1.13,0,0,1-1,.55h-.26a.62.62,0,0,0-.69.52V42a.72.72,0,0,1-.7.7H452.1c-.39,0-.7.21-.7.47s.31.47.7.47h11a.71.71,0,0,1,.7.69v4.2a.71.71,0,0,1-.7.69H447.63c-.38,0-.7.21-.7.46s.32.47.7.47h23.8a.7.7,0,0,1,.7.7h0v3.56a.7.7,0,0,1-.7.7H448.22c-.38,0-.7.21-.7.47s.32.48.7.48h23.21a.7.7,0,0,1,.7.7h0V64a.88.88,0,0,1-1,1l-6.25-.3c-.38,0-.71.08-.72.24s.28.38.65.49A22.5,22.5,0,0,1,469,67a3.19,3.19,0,0,1,1.09,2.3c0,.64.18.82.63.82A12.12,12.12,0,0,0,475.38,69a3.78,3.78,0,0,0,1.33-1.42,3.57,3.57,0,0,0,.29-1.33V56.61a.64.64,0,0,1,.7-.59h9.05c.27,0,.42-.24.1-.55s-4-3.48-4-3.48a.73.73,0,0,0-1,.09l-2,2.45a1.64,1.64,0,0,1-1.14.54h-1a.72.72,0,0,1-.7-.74V50.81a.72.72,0,0,1,.7-.7h9.38c.37,0,.59-.33.17-.68L483,45.94a.78.78,0,0,0-1,.09l-2.32,2.6a1.68,1.68,0,0,1-1.15.53H469.4a.69.69,0,0,1-.69-.69h0v-4.2a.69.69,0,0,1,.69-.69h14.39c.2,0,.38-.24.12-.45l-4.09-3.25a.81.81,0,0,0-1,.1l-2,2.14a1.84,1.84,0,0,1-1.17.51H469.4a.71.71,0,0,1-.69-.7v-.68a1,1,0,0,1,.66-.92s1.05-.36,1.05-.77-3.32-.87-3.32-.87c-.38,0-.45-.27-.14-.5l3.55-3.14a2,2,0,0,1,1.19-.5h.3a1.21,1.21,0,0,1,1,.64,18.62,18.62,0,0,1,1.28,4.19c.23,1.31.54,1.8,1.26,1.8a3.41,3.41,0,0,0,2.94-2.93c0-1.21-4.3-3.38-4.3-3.38-.34-.17-.31-.32.08-.32h13.25C487.75,34.55,487.85,34.23,487.57,34Z" transform="translate(0 0.01)"/><path class="cls-1" d="M518.26,37.49c1.58,0,3.25-2,3.25-3.83s-6.81-5-6.81-5c-.34-.16-.71-.2-.81-.09s0,.47.2.79a22.5,22.5,0,0,1,2.64,5.82C517.22,37.13,517.5,37.49,518.26,37.49Z" transform="translate(0 0.01)"/><path class="cls-1" d="M509.29,38c1.39,0,2.88-1.9,2.88-3.57,0-1.85-6.81-5-6.81-5-.34-.16-.69-.2-.76-.09a.9.9,0,0,0,.26.78,23.06,23.06,0,0,1,2.89,6.1C508.16,37.53,508.57,38,509.29,38Z" transform="translate(0 0.01)"/><path class="cls-1" d="M534.55,50.31a.76.76,0,0,0-1,.1l-2.64,3a1.75,1.75,0,0,1-1.16.52h-8a.7.7,0,0,1-.7-.7h0V52a1.1,1.1,0,0,1,.66-.94s1-.31,1-.75c0-.28-.58-.58-.14-.78l7-3.1a3.17,3.17,0,0,1,1.17-.31c1.18,0,1.85-.22,1.85-.68a.63.63,0,0,0-.19-.4,8.75,8.75,0,0,0-.78-.72.26.26,0,0,1-.09-.37.2.2,0,0,1,.09-.09l1.11-.68L536.15,41a2.77,2.77,0,0,1,1.26-.47s2-.18,2.08-.7a.9.9,0,0,0-.43-.82l-4.28-3.24a.86.86,0,0,0-1.07,0l-1.83,1.75a2,2,0,0,1-1.19.49h-4.88c-.38,0-.44-.19-.13-.41l6.09-5a1.75,1.75,0,0,1,.92-.46c1.22,0,1.8-.23,1.85-.73a.47.47,0,0,0-.32-.49l-6.09-2.13a.72.72,0,0,0-.9.45l-3.55,8.14a1.27,1.27,0,0,1-1,.62h-18a.79.79,0,0,1-.76-.7l-.19-1.68c-.09-.72-.69-.81-.79-.3a13.73,13.73,0,0,1-.49,1.66,12.65,12.65,0,0,1-1.27,2.68,5.72,5.72,0,0,1-.93,1.15c-.68.63-1.72.85-2.2,1.69A3.15,3.15,0,0,0,498,45a2.79,2.79,0,0,0,1.73,1.94,2.23,2.23,0,0,0,1.85-.54,6.64,6.64,0,0,0,1.4-1.59,9.12,9.12,0,0,0,.88-3.48,15.68,15.68,0,0,0,.14-1.94c0-.27.12-.41.5-.41h26.67a.52.52,0,0,1,.55.49.37.37,0,0,1,0,.18l-.91,3.18a.48.48,0,0,1-.58.35.53.53,0,0,1-.21-.11l-2.29-1.63a.86.86,0,0,0-1.07.1L525.2,43a1.9,1.9,0,0,1-1.19.5H506.49c-.39,0-.7.21-.7.48s.31.47.7.47h17.39c.38,0,.5.25.28.56l-3.25,3.85a1.44,1.44,0,0,1-1.17.39l-3.17-.45a.61.61,0,0,0-.69.51.41.41,0,0,0,0,.11v3.81a.79.79,0,0,1-.84.69H498.44c-.38,0-.7.21-.7.46s.32.46.7.46h16.73a.7.7,0,0,1,.7.7h0V64c0,.63-.47.9-1.07.87l-7.87-.45c-.39,0-.7.09-.7.25s.31.36.68.46c0,0,4.64,1.14,5.49,1.85a3.42,3.42,0,0,1,1.27,2.35c.09.73.23.86.82.86a11.68,11.68,0,0,0,4.86-1.12A3.51,3.51,0,0,0,521,65.69V55.55a.7.7,0,0,1,.7-.7h17.37c.46,0,.63-.42.18-.78Z" transform="translate(0 0.01)"/><path class="cls-1" d="M373,41.27a14.15,14.15,0,0,0-2.22-5.52A9.14,9.14,0,0,0,363,31.93a6.8,6.8,0,0,0-5.36,2.46,7.22,7.22,0,0,0-1.54,4.53,5.83,5.83,0,0,0,1.62,4.4A18.68,18.68,0,0,0,364,47.45c4.84,2.27,6.76,3.36,8.56,5a9.74,9.74,0,0,1,3,7.21,8.73,8.73,0,0,1-3.12,7.27,12.63,12.63,0,0,1-8.69,2.84,44.71,44.71,0,0,1-6.71-1,10.33,10.33,0,0,0-2-.34,5,5,0,0,0-1.43.17,4.25,4.25,0,0,0-1,.5l-.32.17a.38.38,0,0,1-.43,0,.48.48,0,0,1-.17-.37v-10c0-.31.1-.55.43-.57a.48.48,0,0,1,.5.46v0a10.41,10.41,0,0,0,3.13,6.81,10.87,10.87,0,0,0,7.89,2.94c3.3,0,5.51-1.44,6.7-3.86a7.83,7.83,0,0,0,.67-3.51c0-3.6-2.16-6-9.27-9.49-4.58-2.21-5.79-3-7.38-4.51a9,9,0,0,1-2.62-6.37,9.48,9.48,0,0,1,3.3-7.39,11,11,0,0,1,7.77-2.63,22.79,22.79,0,0,1,6.25.93,12.53,12.53,0,0,0,1.38.3,3.24,3.24,0,0,0,1.77-.14c.35-.14.64-.34,1-.51a1,1,0,0,1,.43-.14.36.36,0,0,1,.36.38v9.47c0,.42-.15.71-.48.7S373.08,41.56,373,41.27Z" transform="translate(0 0.01)"/><path class="cls-1" d="M592.31,63.64c.2,0,.32.28,0,.45a6.7,6.7,0,0,0-3,3,7,7,0,0,0-.58,1.67c-.09.49-.27.67-.55.67a7,7,0,0,1-2.2-.94,34.36,34.36,0,0,1-8.28-6.41.52.52,0,0,0-.7,0,27.35,27.35,0,0,1-6.81,4.83,32.92,32.92,0,0,1-8.78,3c-.37.08-.44-.47-.2-.58A35.73,35.73,0,0,0,574.67,58.8a.55.55,0,0,0,0-.72c-1.28-2.16-3.76-7.5-4.75-9.84a.4.4,0,0,1,.11-.49,9.67,9.67,0,0,1,1-.43c.19-.06.32,0,.43.25a51.51,51.51,0,0,0,4.54,8,.46.46,0,0,0,.64.18.39.39,0,0,0,.18-.18,37.92,37.92,0,0,0,2.53-5.06c.41-1.09.69-1.86,1.11-3.16.19-.59.35-.81.78-.62,1.58.69,5.5,2.45,5.5,3,0,.35-.37.51-1.46.56a.66.66,0,0,0-.78.49,39.48,39.48,0,0,1-4.23,7.39c-.28.36-.25.66,0,.85A21.13,21.13,0,0,0,585,61.52,27.48,27.48,0,0,0,592.31,63.64Zm-.86-26.33a.36.36,0,0,0,.41-.28.37.37,0,0,0-.16-.36l-4.13-3.57a.68.68,0,0,0-1,.08l0,0-2.1,2.61a1.73,1.73,0,0,1-1.14.54h-3.21a.69.69,0,0,1-.69-.69h0V31.92a1.15,1.15,0,0,1,.64-1s1.1-.45,1.16-.85c0-.21-.12-.37-.8-.49-1.69-.3-5.32-.71-5.32-.71a.49.49,0,0,0-.56.43.46.46,0,0,0,0,.2v6.14a.7.7,0,0,1-.7.7h-7.25c-.39,0-.71.21-.71.47s.32.46.71.46ZM568,43.76a50.14,50.14,0,0,1-4.86,6.81c-.25.3-.25.44-.18.53a.48.48,0,0,0,.57,0c3.51-2.46,10.22-8.39,10.22-8.39a1.5,1.5,0,0,1,.88-.51h.09c.9,0,1.54-.27,1.54-.64s-5.4-2.5-5.4-2.5a.69.69,0,0,0-.88.4h0A30.84,30.84,0,0,1,568,43.76Zm12.4-4.45c-.37-.11-.71-.11-.76,0s.14.42.42.68c0,0,4.85,4.48,6.66,7.6.81,1.44,1.21,1.8,1.85,1.8,1.08,0,2-1.71,2-3.6,0-1.54-.55-2.35-2.44-3.52S580.4,39.31,580.4,39.31Zm-17.63,9.36c1,0,2.17-1.67,2.17-3.07,0-.81-1.22-1.77-1.22-1.77a10.05,10.05,0,0,0-1.14-.79l-1.92-1a1.15,1.15,0,0,1-.64-1v-.9a.7.7,0,0,1,.7-.7h5.76c.41,0,.51-.31.24-.59l-3-3.08a.6.6,0,0,0-.86,0,.27.27,0,0,0-.07.08L561.24,38c-.14.2-.41.56-.62.56h-.13c-.3,0-.46-.27-.46-.58V31.64a1.3,1.3,0,0,1,.64-1c.27-.13,1-.46,1.07-.72s-.32-.36-.93-.49c-1.65-.33-4.83-.76-4.83-.76a.59.59,0,0,0-.68.5.49.49,0,0,0,0,.12v8.54a.71.71,0,0,1-.71.7H550c-.38,0-.7.22-.7.48s.32.48.7.48h4.28c.44,0,.61.41.56.79l-.27,1.63c-.2,1.08-.42,2.16-.67,3.23A60.27,60.27,0,0,1,552,51.46c-.69,1.94-1.48,3.84-2.31,5.73-.29.65-.57,1.31-.89,2-.17.35-.19.7,0,.79s.46-.07.69-.38a96.66,96.66,0,0,0,5.78-8.94c.18-.34.31-.31.31.07v18c0,.64,0,1.44.48,1.47a19.12,19.12,0,0,0,3.38-.2c.45-.1.52-.71.52-1.1V43.24c0-.39.15-.43.35-.1a13,13,0,0,1,1.5,4.09C561.91,48.27,562.23,48.67,562.77,48.67Z" transform="translate(0 0.01)"/><circle class="cls-1" cx="335.78" cy="49.74" r="2.71"/></g></g></svg>